# xmcd CD database file
#
# Track frame offsets:
#	150
#	13550
#	27303
#	42915
#	56394
#	75357
#	95952
#	109004
#	126525
#	142686
#	161878
#	172459
#	188024
#	198484
#	209782
#	228854
#
# Disc length: 3309 seconds
#
# Revision: 0
# Processed by: cddbd v1.5.1PL2 Copyright (c) Steve Scherf et al.
# Submitted via: CDex 1.51
#
DISCID=e10ceb10
DTITLE=Texas Lightning - Meanwhile, back at the Ranch...
DYEAR=2005
DGENRE=Country
TTITLE0=Bad Case Of Lovin' You
TTITLE1=No No Never
TTITLE2=Like A Virgin
TTITLE3=Waterloo
TTITLE4=Kiss
TTITLE5=Over The Mountains 
TTITLE6=C'est La Vie
TTITLE7=Highway To Hell
TTITLE8=Dancing Queen
TTITLE9=Man In The Mirror
TTITLE10=Norwegian Wood
TTITLE11=Smoke, Smoke, Smoke 
TTITLE12=Walkin' After Midnight
TTITLE13=Raindrops Keep Falling On My Head
TTITLE14=Like A Virgin
TTITLE15=Blue Bayou
EXTD=YEAR: 2005
EXTT0=
EXTT1=
EXTT2=
EXTT3=
EXTT4=
EXTT5=
EXTT6=
EXTT7=
EXTT8=
EXTT9=
EXTT10=
EXTT11=
EXTT12=
EXTT13=
EXTT14=
EXTT15=
PLAYORDER=
